<?xml version="1.0" standalone="yes"?>
<svg width="135" height="101">
<path style="fill:#ffffff; stroke:none;" d="M0 0L0 49C5.63935 44.4366 12.01 42.0606 18 38.1644C22.9313 34.9567 26.964 30.4166 33 29.3295C39.4201 28.1732 45.6903 30.1852 52 31L52 1L134 1L134 50C135.981 45.2801 135 39.0802 135 34L135 0L0 0z"/>
<path style="fill:#808080; stroke:none;" d="M52 1L52 38C53.6611 34.0414 53 29.2603 53 25L53 2L133 2L133 43C134.769 38.7849 134 33.5355 134 29L134 1L52 1z"/>
<path style="fill:#777777; stroke:none;" d="M53 2C53 15.7394 52.5873 29.321 52 43C64.3274 39.7304 78.217 38.5066 91 40.1883C96.4404 40.904 101.421 43.2968 107 43.8302C115.558 44.6486 124.383 43 133 43L133 2L53 2z"/>
<path style="fill:#040000; stroke:none;" d="M0 53C5.70359 46.1111 11.2078 44.9694 18.7407 41.2145C23.0519 39.0656 25.6424 34.4833 30.0147 32.4329C35.5521 29.8361 43.0479 31 49 31C42.8534 28.0461 33.103 27.8503 27 31.0502C22.6722 33.3192 19.2779 36.9921 15 39.3557C8.49309 42.951 0.945735 44.5793 0 53z"/>
<path style="fill:#400000; stroke:none;" d="M32 31C35.4324 32.4403 39.2998 32 43 32C39.5676 30.5597 35.7002 31 32 31z"/>
<path style="fill:#1a0000; stroke:none;" d="M43 31C45.8897 32.2129 48.8741 31.9983 52 32C49.1103 30.7871 46.1259 31.0017 43 31z"/>
<path style="fill:#330000; stroke:none;" d="M8 46C17.202 48.5531 24.9016 36.4387 32 33C26.9527 31.416 23.9469 37.0259 20.2863 39.7492C16.7115 42.4087 11.9614 43.9244 8 46z"/>
<path style="fill:#650000; stroke:none;" d="M27 37C31.0403 34.8857 34.3911 33.2396 39 33C34.2816 31.0386 29.4155 32.5125 27 37z"/>
<path style="fill:#920000; stroke:none;" d="M39 32C40.769 32.7789 42.0359 32.9124 44 33C42.231 32.2211 40.9641 32.0876 39 32z"/>
<path style="fill:#cc0000; stroke:none;" d="M85 92C85.178 90.2749 85.2714 88.6431 86.0093 87.034C89.9127 78.5218 102.751 86.7134 108 79C100.92 76.3484 93.4492 77 86 77L52 77C52 71.9555 50.0176 61.5231 53.6034 57.5494C58.5237 52.0969 70.527 52.9512 77 53.7145C85.173 54.6783 93.876 56.3912 102 56.946C112.403 57.6564 122.666 56.2133 133 56L133 44C127.884 44.5099 123.187 46.8372 118 46.946C111.507 47.0821 105.329 45.0885 99 44.2091C92.1593 43.2586 84.9019 42.8606 78 42.1705C69.2816 41.2988 60.6898 42.9942 52 43L52 32C45.4332 32.0181 38.0284 32.6343 32.0895 35.7191C26.4683 38.639 22.0925 43.1791 16.1698 45.8804C11.8157 47.8662 3.51088 48.8181 1.02778 53.1335C-1.90857 58.2366 0 68.255 0 74C0 78.4937 -2.14937 90.8595 1.6034 93.9869C6.867 98.3734 17.7056 96.8605 24 97.0147C37.5837 97.3474 50.4728 97.6775 63.9961 95.811C67.3966 95.3416 69.8394 93.0399 73.0895 92.2994C76.8391 91.445 81.1707 92 85 92z"/>
<path style="fill:#a90000; stroke:none;" d="M26 41C30.2845 37.6904 33.509 34.9492 39 34C33.0876 31.5941 28.1397 35.6068 26 41z"/>
<path style="fill:#860000; stroke:none;" d="M20 44C23.8081 42.4933 25.885 40.4903 28 37C24.2623 38.5134 22.1994 40.6459 20 44z"/>
<path style="fill:#8e5757; stroke:none;" d="M61 40C64.7569 41.5764 68.9711 40.8629 73 41.0394C78.037 41.2599 82.9294 41.9994 88 42C80.1356 38.6925 69.4165 40 61 40z"/>
<path style="fill:#826666; stroke:none;" d="M79 40C82.9335 41.6543 87.7257 41.3983 91.9606 42.0895C96.5148 42.8328 100.289 43.9964 105 44C96.5875 40.3381 88.0552 40 79 40z"/>
<path style="fill:#994646; stroke:none;" d="M56 41C57.769 41.7789 59.0359 41.9124 61 42C59.231 41.2211 57.9641 41.0876 56 41z"/>
<path style="fill:#b42222; stroke:none;" d="M54 42C60.3739 44.6686 70.9649 42 78 42C70.8234 38.9886 61.5405 41.8444 54 42z"/>
<path style="fill:#510000; stroke:none;" d="M16 43C18.0443 43.7744 18.8446 43.5922 21 43C19.1535 42.5325 17.9315 42.6987 16 43z"/>
<path style="fill:#b42424; stroke:none;" d="M80 42C83.1601 43.5187 86.5093 43.8497 90 44C86.8909 41.876 83.6957 42.0106 80 42z"/>
<path style="fill:#954d4d; stroke:none;" d="M88 42C90.6127 43.0977 93.1645 42.9928 96 43C93.3873 41.9023 90.8355 42.0072 88 42z"/>
<path style="fill:#1e0000; stroke:none;" d="M6 46C8.68965 46.4054 10.5558 45.2251 13 44C10.1633 43.3251 8.47785 44.4949 6 46z"/>
<path style="fill:#a63636; stroke:none;" d="M90 43C92.0521 43.8742 93.7472 43.9528 96 44C93.9479 43.1258 92.2528 43.0472 90 43z"/>
<path style="fill:#846565; stroke:none;" d="M106 44C113.167 47.0076 123.322 44 131 44C123.833 40.9924 113.678 44 106 44z"/>
<path style="fill:#ad2c2c; stroke:none;" d="M131 43C132.248 43.6848 132.548 43.7488 134 44C132.752 43.3152 132.452 43.2512 131 43z"/>
<path style="fill:#8c0000; stroke:none;" d="M1 52C6.96898 49.2145 13.7049 46.9567 20 45C14.8438 43.1717 3.79867 47.4089 1 52z"/>
<path style="fill:#954d4d; stroke:none;" d="M101 44C102.769 44.7789 104.036 44.9124 106 45C104.231 44.2211 102.964 44.0876 101 44z"/>
<path style="fill:#964b4b; stroke:none;" d="M119 44C122.163 45.3274 125.586 44.9996 129 45C125.837 43.6726 122.414 44.0004 119 44z"/>
<path style="fill:#c20d0d; stroke:none;" d="M133 44L133 56L126 56C128.613 57.0977 131.165 56.9928 134 57C134 52.7366 134.661 47.9587 133 44z"/>
<path style="fill:#bb1919; stroke:none;" d="M103 45C105.89 46.2129 108.874 45.9983 112 46C109.11 44.787 106.126 45.0017 103 45z"/>
<path style="fill:#a13b3b; stroke:none;" d="M112 45C116.471 46.8763 122.183 46 127 46C122.529 44.1237 116.817 45 112 45z"/>
<path style="fill:#ba1717; stroke:none;" d="M112 46C115.432 47.4403 119.3 47 123 47C119.568 45.5597 115.7 46 112 46z"/>
<path style="fill:#4f0000; stroke:none;" d="M3 48C4.84648 48.4675 6.06854 48.3013 8 48C5.95574 47.2256 5.15538 47.4078 3 48z"/>
<path style="fill:#0b0b0b; stroke:none;" d="M134 50L134 66C135.812 61.6811 135.812 54.3189 134 50z"/>
<path style="fill:#bc1b1b; stroke:none;" d="M66 53C69.1633 54.3274 72.5856 53.9996 76 54C72.8367 52.6726 69.4144 53.0004 66 53z"/>
<path style="fill:#ab3232; stroke:none;" d="M57 55C63.115 56.8809 72.4194 55 79 55C73.251 52.5876 62.9175 53.2509 57 55z"/>
<path style="fill:#bf1111; stroke:none;" d="M79 54C84.2397 56.1995 92.2492 56.5423 98 57C93.0362 53.22 85.0136 54 79 54z"/>
<path style="fill:#954f4f; stroke:none;" d="M60 55C65.959 57.5005 74.5639 56 81 56C75.041 53.4995 66.4361 55 60 55z"/>
<path style="fill:#b02727; stroke:none;" d="M81 55C85.0146 56.8022 89.6278 56.9638 94 57C89.9333 55.0456 85.4558 55.0123 81 55z"/>
<path style="fill:#a93232; stroke:none;" d="M53.6667 56.3333C53.2222 56.7778 54.2778 56.7222 54.3333 56.6667C54.7778 56.2222 53.7222 56.2778 53.6667 56.3333z"/>
<path style="fill:#856666; stroke:none;" d="M55 56C62.4089 59.1089 73.9755 57 82 57C74.5911 53.8911 63.0245 56 55 56z"/>
<path style="fill:#915252; stroke:none;" d="M82 56C83.7691 56.7789 85.0359 56.9124 87 57C85.231 56.2211 83.9641 56.0876 82 56z"/>
<path style="fill:#777777; stroke:none;" d="M52 57C53.4779 63.2076 53 69.6537 53 76L134 77L134 57C118.527 62.9585 101.907 58.8766 86 57.1736C74.8902 55.9842 63.1727 57 52 57z"/>
<path style="fill:#925252; stroke:none;" d="M88 57C92.0582 59.1576 96.4908 58.997 101 59C96.9333 57.0456 92.4558 57.0123 88 57z"/>
<path style="fill:#af2727; stroke:none;" d="M96 57C97.769 57.7789 99.0359 57.9124 101 58C99.231 57.2211 97.9641 57.0876 96 57z"/>
<path style="fill:#c20c0c; stroke:none;" d="M101 57C107.928 59.9071 118.503 58 126 58C119.072 55.0929 108.497 57 101 57z"/>
<path style="fill:#b12525; stroke:none;" d="M126 57C127.769 57.7789 129.036 57.9124 131 58C129.231 57.2211 127.964 57.0876 126 57z"/>
<path style="fill:#924e4e; stroke:none;" d="M131.667 57.3333C131.222 57.7778 132.278 57.7222 132.333 57.6667C132.778 57.2222 131.722 57.2778 131.667 57.3333z"/>
<path style="fill:#808080; stroke:none;" d="M52 58L52 77L104 77C99.031 74.9149 92.3503 76 87 76L53 76C53 70.3678 54.1914 63.2224 52 58z"/>
<path style="fill:#b62020; stroke:none;" d="M101 58C107.928 60.9071 118.503 59 126 59C119.072 56.0929 108.497 58 101 58z"/>
<path style="fill:#8a5c5c; stroke:none;" d="M121 59C124.333 60.3857 127.514 59.6469 131 59C127.751 57.7317 124.433 58.7295 121 59z"/>
<path style="fill:#974949; stroke:none;" d="M105 59C109.724 60.9822 115.91 60 121 60C116.276 58.0178 110.09 59 105 59z"/>
<path style="fill:#ffffff; stroke:none;" d="M134 66L134 77C128.638 77 121.042 75.6586 116.184 78.3171C112.652 80.2505 111.011 84.1423 107.025 85.5363C102.251 87.2053 95.8502 85.0343 91.3897 87.348C88.5942 88.798 87.4853 92.4315 84.8951 94.2724C80.312 97.5296 72.4445 98.7404 67 100C72.951 102.497 81.5798 101 88 101L135 101L135 78C135 74.0172 135.552 69.6987 134 66z"/>
<path style="fill:#8d6262; stroke:none;" d="M104 76C106.613 77.0977 109.165 76.9928 112 77C109.387 75.9023 106.835 76.0072 104 76z"/>
<path style="fill:#b72222; stroke:none;" d="M103 77C105.332 77.9845 107.457 77.9813 110 78C107.668 77.0155 105.543 77.0187 103 77z"/>
<path style="fill:#842525; stroke:none;" d="M110 79L113 78C111.222 77.0445 110.979 77.2338 110 79z"/>
<path style="fill:#060000; stroke:none;" d="M80 95C86.6301 97.269 87.2878 89.8963 91.9275 87.4645C96.4444 85.097 103.083 87.3332 107.96 85.561C112.047 84.0755 114.173 79.9438 118 78C112.247 75.7743 110.411 81.2864 105.957 83.6829C101.06 86.3175 95.1031 83.3365 90.3025 85.6034C88.1387 86.6251 87.6373 89.106 86.2785 90.8711C84.587 93.0686 82.4943 94.0124 80 95z"/>
<path style="fill:#af0d0d; stroke:none;" d="M107 78L108 80C109.635 79.455 109.455 79.6351 110 78L107 78z"/>
<path style="fill:#3f0000; stroke:none;" d="M109 79L108 83C109.434 81.6075 110.045 80.7672 111 79L109 79z"/>
<path style="fill:#980000; stroke:none;" d="M107 80C101.339 84.9227 91.4506 79.9068 87 85C93.9029 83.3566 104.569 86.5106 109 80L107 80z"/>
<path style="fill:#540000; stroke:none;" d="M105.667 83.3333C105.222 83.7778 106.278 83.7222 106.333 83.6667C106.778 83.2222 105.722 83.2778 105.667 83.3333z"/>
<path style="fill:#430000; stroke:none;" d="M86 90C88.1945 88.3599 89.5137 86.3192 92 85C88.1183 83.7332 86.9166 86.6016 86 90z"/>
<path style="fill:#2c0000; stroke:none;" d="M92 84C96.2165 85.7693 101.459 85 106 85C101.783 83.2307 96.5411 84 92 84z"/>
<path style="fill:#a10000; stroke:none;" d="M86 85L85 91C86.3054 88.8193 86.7355 87.4333 86 85z"/>
<path style="fill:#1a0000; stroke:none;" d="M86 90L82 93C84.5435 93.5498 86.0786 92.6868 86 90z"/>
<path style="fill:#a40000; stroke:none;" d="M31 98C38.0776 100.97 46.9355 98.516 54.0895 97.2593C58.0155 96.5696 62.0729 97.4363 66 96.7755C72.493 95.6829 77.0858 93.0008 84 93C76.3728 89.7995 71.076 94.2367 63.9961 95.6566C60.3883 96.3802 56.6418 95.7656 53 96.1042C45.5149 96.8001 38.6454 98 31 98z"/>
<path style="fill:#7e0000; stroke:none;" d="M71 94C74.4101 95.0489 78.3905 94.0299 82 94C78.3932 92.4871 74.7406 93.1095 71 94z"/>
<path style="fill:#050000; stroke:none;" d="M0 94C1.67118 98.8019 6.44693 98.903 11 99L0 94z"/>
<path style="fill:#440000; stroke:none;" d="M74 94C76.6127 95.0977 79.1645 94.9928 82 95C79.3873 93.9023 76.8355 94.0072 74 94z"/>
<path style="fill:#8c0000; stroke:none;" d="M2 95C4.58821 96.3778 7.08011 96.7613 10 97C7.39703 95.4388 5.02204 95.1379 2 95z"/>
<path style="fill:#400000; stroke:none;" d="M70 97L74 96C71.9535 95.2489 71.4043 95.3444 70 97z"/>
<path style="fill:#160000; stroke:none;" d="M11 99C17.1164 102.252 25.2619 101 32 101C44.0066 101 56.071 101.267 68 99.8156C72.0937 99.3176 75.9139 97.6034 80 97L80 95C74.1642 95.1366 69.6219 98.2078 64 98.8704C46.2861 100.958 28.6993 99.3653 11 99z"/>
<path style="fill:#3e0000; stroke:none;" d="M3 96C4.24835 96.6848 4.54842 96.7488 6 97C4.75165 96.3152 4.45158 96.2512 3 96z"/>
<path style="fill:#7a0000; stroke:none;" d="M51 97C56.1998 99.1819 64.6575 98.5792 70 97C64.356 95.6443 56.9261 97 51 97z"/>
<path style="fill:#ffffff; stroke:none;" d="M0 97L0 101L15 101C10.6058 98.6631 4.86748 98.1126 0 97z"/>
<path style="fill:#570000; stroke:none;" d="M7 97C8.50605 97.683 9.31479 97.8259 11 98C9.49395 97.317 8.68521 97.1741 7 97z"/>
<path style="fill:#a30000; stroke:none;" d="M11 97C16.4692 99.295 24.0987 98 30 98C24.5308 95.705 16.9013 97 11 97z"/>
<path style="fill:#480000; stroke:none;" d="M11 98C13.0521 98.8742 14.7472 98.9528 17 99C14.9479 98.1258 13.2528 98.0472 11 98z"/>
<path style="fill:#7d0000; stroke:none;" d="M17 98C21.2165 99.7693 26.4589 99 31 99C26.7835 97.2307 21.5411 98 17 98z"/>
<path style="fill:#4d0000; stroke:none;" d="M48 99C53.4959 101.285 61.9694 99 68 99C62.2595 96.5912 54.0023 97.8857 48 99z"/>
<path style="fill:#620000; stroke:none;" d="M17 99C25.3668 102.511 38.9238 100 48 100C39.6332 96.4892 26.0762 99 17 99z"/>
<path style="fill:#000000; stroke:none;" d="M58 100C60.8897 101.213 63.8741 100.998 67 101C64.1103 99.7871 61.1259 100.002 58 100z"/>
</svg>
